<svg id="Layer_1" data-name="Layer 1" xmlns="http://www.w3.org/2000/svg" viewBox="0 0 1631.36 374.95"><path d="M350.81,373.63c-58.55-2.43-34-54.6-29-95.34,5.43-33.43,17.5-82.61,19-115.88,0-11.06-1.58-25.29-25.81-25.29-31.08,0-57.95,34.77-63.21,41.62L221.23,369.42H158.55c12.12-64.26,33.19-178.57,33.19-206,0-12.64-2.11-26.34-25.29-26.34-29.49,0-57.41,34.77-62.68,41.62L73.22,369.42H10C25.28,291.46,45.3,174,45.3,151.35c0-7.9-3.16-11.59-10.53-11.59-11.59,0-21.07,17.91-23.18,21.07L0,152.93c13.7-23.71,37.4-55.31,72.17-55.31,42.75-1.7,37.87,41.2,31.6,61.63,34.58-70,160.24-92.9,149.07-1.06,36.85-72.35,154.29-86.86,151.71-9.47-1.29,44.81-25.33,136.3-27.92,171.71,0,7.9,2.63,11.59,9.48,11.59,11.59,0,21.59-18.43,23.7-21.6l11.59,8.43C407.7,342.56,385.58,373.63,350.81,373.63Z"/><path d="M652.63,373.56c-43.09,1.7-37.67-41.68-31.6-62.15-40.22,69.73-153.34,109.41-156.45-29.5,2.53-136.2,90.24-225,192.27-166.45l52.67-20,5.27,3.69c-10.53,46.35-35.29,199.64-35.29,220.71,0,8.42,3.16,11.58,10.53,11.58,11.59,0,21.07-17.91,23.18-21.07l11.59,7.91C711.1,342,687.4,373.56,652.63,373.56ZM617.87,123.89c-77.21,2.84-84.58,98.67-88,155.91C525.77,354.9,584.41,343.55,621,293l26.34-162.76S636.83,123.89,617.87,123.89Z"/><path d="M944.45,166.1c-21.81.68-21.21-17.44-35.82-17.39S874.92,174,866.49,184.53l-29,184.89H774.31c15.27-78,34.76-195.42,34.76-218.07,0-7.9-3.16-11.59-10.53-11.59-11.59,0-21.07,17.91-23.18,21.07l-11.59-7.9c29.45-65.56,131.93-86.36,102.72,11.58,16.86-25.28,43.72-66.89,78.48-66.89,6.33,0,32.14.52,32.14,30C977.11,152.4,962.36,166.1,944.45,166.1Z"/><path d="M1165.15,373.56c-43.09,1.7-37.68-41.68-31.6-62.15-40.22,69.73-153.35,109.41-156.45-29.5,2.53-136.2,90.24-225,192.26-166.45l52.68-20,5.27,3.69c-10.54,46.35-35.3,199.64-35.3,220.71,0,8.42,3.17,11.58,10.54,11.58,11.59,0,21.07-17.91,23.18-21.07l11.59,7.91C1223.62,342,1199.92,373.56,1165.15,373.56Zm-34.77-249.67c-77.21,2.84-84.58,98.67-88,155.91-4.13,75.1,54.52,63.75,91.14,13.17l26.33-162.76S1149.35,123.89,1130.38,123.89Z"/><path d="M1327.91,373.56c-59.76-2-32.86-59-29-95.86,3.92-23,23.08-116.53,22.65-126.95,0-7.9-2.63-11.59-9.48-11.59-11.59,0-21.6,18.44-23.71,21.6l-11.58-8.43c13.69-23.7,35.81-54.78,70.58-54.78,33.18,0,38.45,20,38.45,34.76-1.85,44.57-29.48,150.27-32.13,188.05,0,7.9,3.16,11.59,10,11.59,11.59,0,21.6-18.44,23.7-21.6l11.07,8.43C1384.8,342.49,1362.68,373.56,1327.91,373.56Zm40-306C1317.71,69.13,1323.64-3,1371.63.1,1421.55-1.38,1416.14,70.6,1367.94,67.52Z"/><path d="M1600.76,163.39c-15.8,0-22.65-9.48-26.87-21.6-5.26-14.22-8.42-21.59-25.81-21.59-42.23.41-51.65,49.23-13.69,74.8l30.55,22.12c80.44,47.29,52.07,164.2-56.36,157-99,5.22-98.54-64.48-51.62-68.48,19.49,0,23.7,14.23,26.33,21.6,5.8,14.22,7.91,24.23,29,24.23,11.07,0,42.67-2.11,42.67-40.56,0-16.86-6.85-29.5-24.76-42.67l-30.55-22.65c-68.55-45.17-57.21-146.13,54.78-148C1645.86,92.67,1648.35,158.7,1600.76,163.39Z"/></svg>